<svg width="16" height="16" viewBox="0 0 32 32" fill="#ffffff" xmlns="http://www.w3.org/2000/svg">
  <path d="M24.75 17.542c-1.469 0-2.849-.609-4.099-1.619l.305-1.437.013-.065c.269-1.509 1.109-4.041 3.781-4.041 1.984 0 3.604 1.621 3.604 3.584 0 1.968-1.62 3.578-3.604 3.578zm0-10.625c-3.131 0-5.532 2.042-6.551 5.391-.951-1.438-1.667-3.161-2.083-4.625H13.5v5.593c0 1.969-1.62 3.579-3.604 3.579-1.984 0-3.604-1.61-3.604-3.579V7.683H3.667v5.593c0 3.281 2.656 5.959 5.917 5.959 2.235 0 4.172-1.226 5.229-3.031.692 1.427 1.557 2.828 2.609 3.984L15.917 25h2.709l1.073-5.061c1.213.807 2.609 1.303 4.135 1.303 3.281 0 5.917-2.677 5.917-5.959-.001-3.276-2.637-5.959-5.918-5.959z"/>
</svg>